# xmcd
# 
# Track frame offsets:
#     182
#     19182
#     38842
#     63007
# 
# Disc length: 1121
# 
# Revision: 3
# Processed by: cddbd v1.5.2PL0 Copyright (c) Steve Scherf et al.
# Submitted via: fre:ac v1.0.31
# 
DISCID=27045f04
DTITLE=No Mercy - More Than A Feeling
DYEAR=1999
DGENRE=
TTITLE0=More Than A Feeling [Radio Edit Remix]
TTITLE1=More Than A Feeling [Radio Edit Album Version]
TTITLE2=More Than A Feeling [Extended Club Version]
TTITLE3=More Than A Feeling [Doug Laurent Club Mix]
EXTD=
EXTT0=
EXTT1=
EXTT2=
EXTT3=
PLAYORDER=
